<?xml version="1.0" encoding="UTF-8" standalone="no"?>
<!-- Created with Inkscape (http://www.inkscape.org/) -->

<svg
   xmlns:dc="http://purl.org/dc/elements/1.1/"
   xmlns:cc="http://creativecommons.org/ns#"
   xmlns:rdf="http://www.w3.org/1999/02/22-rdf-syntax-ns#"
   xmlns:svg="http://www.w3.org/2000/svg"
   xmlns="http://www.w3.org/2000/svg"
   xmlns:sodipodi="http://sodipodi.sourceforge.net/DTD/sodipodi-0.dtd"
   xmlns:inkscape="http://www.inkscape.org/namespaces/inkscape"
   width="128.89308"
   height="189.95145"
   id="svg2"
   version="1.1"
   inkscape:version="0.48.2 r9819"
   sodipodi:docname="wugbot.svg">
  <defs
     id="defs4" />
  <sodipodi:namedview
     id="base"
     pagecolor="#ffffff"
     bordercolor="#666666"
     borderopacity="1.0"
     inkscape:pageopacity="0.0"
     inkscape:pageshadow="2"
     inkscape:zoom="3.6712559"
     inkscape:cx="72.839652"
     inkscape:cy="93.447077"
     inkscape:document-units="px"
     inkscape:current-layer="layer1"
     showgrid="false"
     showguides="true"
     inkscape:guide-bbox="true"
     fit-margin-top="10"
     fit-margin-left="10"
     fit-margin-right="10"
     fit-margin-bottom="10"
     inkscape:window-width="1162"
     inkscape:window-height="828"
     inkscape:window-x="0"
     inkscape:window-y="0"
     inkscape:window-maximized="0">
    <sodipodi:guide
       orientation="0,1"
       position="-430.40767,-1067.9793"
       id="guide4194" />
  </sodipodi:namedview>
  <metadata
     id="metadata7">
    <rdf:RDF>
      <cc:Work
         rdf:about="">
        <dc:format>image/svg+xml</dc:format>
        <dc:type
           rdf:resource="http://purl.org/dc/dcmitype/StillImage" />
        <dc:title></dc:title>
      </cc:Work>
    </rdf:RDF>
  </metadata>
  <g
     inkscape:label="Layer 1"
     inkscape:groupmode="layer"
     id="layer1"
     transform="translate(-1518.0131,1748.1927)">
    <g
       id="g4258"
       transform="translate(58.12893,16.955712)"
       inkscape:export-filename="/Users/pat/Sites/Wugbot/wugbot.org/img/wugbot.png"
       inkscape:export-xdpi="446.23001"
       inkscape:export-ydpi="446.23001">
      <path
         sodipodi:nodetypes="csccccccssccccccsssccsccccssccsscscsssssccsccc"
         inkscape:connector-curvature="0"
         id="path4256"
         d="m 1507.2358,-1675.9502 c -4.6936,0.2872 -8.7384,-0.2962 -11.4168,-1.6586 -1.8539,-0.9431 -4.3929,-2.6556 -5.4984,-3.7057 -0.8837,-0.8395 -1.9654,-2.1075 -2.2351,-2.6231 -0.1711,-0.3271 0.088,-1.8742 0.5316,-3.1625 0.3649,-1.0599 0.8054,-3.0827 0.8071,-3.7173 0,-0.2344 -0.2161,-1.0726 -0.4811,-1.8626 -0.2651,-0.7899 -0.5152,-1.5754 -0.5549,-1.7461 -0.04,-0.1707 -0.2346,-0.4846 -0.4307,-0.6984 -0.4328,-0.4719 -0.9467,-0.5976 -3.2556,-0.7955 -1.2149,-0.1041 -1.7852,-0.2086 -2.0837,-0.3803 -0.6637,-0.3817 -0.5762,-0.5054 -1.3232,1.882 l -0.4501,1.4357 0.9817,0.9933 c 1.3049,1.3244 1.8796,2.4469 1.9712,3.8493 0.058,0.8816 0.025,1.0858 -0.3337,2.0682 -0.5245,1.4364 -1.3997,2.7584 -2.3515,3.5505 -0.8678,0.7222 -1.1398,0.8236 -2.1807,0.8187 -1.3506,-0.01 -1.9957,-0.6032 -3.0111,-2.7899 -0.2696,-0.5805 -0.5905,-1.3628 -0.714,-1.7384 -0.1236,-0.3756 -0.3325,-0.7753 -0.4618,-0.8886 -0.222,-0.1945 -0.2807,-0.1761 -1.0671,0.3454 -0.4577,0.3035 -1.3834,0.8343 -2.0604,1.1757 -1.4394,0.7259 -1.7084,1.0422 -1.3193,1.5793 0.1852,0.2556 0.2722,0.6931 0.3725,1.8858 0.1456,1.7308 0.2315,2.0924 0.7528,3.1663 0.8021,1.6527 2.0321,2.5603 4.3847,3.2285 0.8688,0.2467 1.3855,0.3104 2.4446,0.3104 0.9569,0 1.3598,0.044 1.4047,0.1552 0.047,0.1167 0.093,0.109 0.1901,-0.031 0.092,-0.1334 0.3617,-0.1863 0.9429,-0.1863 0.4465,0 0.811,-0.035 0.811,-0.078 0,-0.043 0.3709,-0.1727 0.8265,-0.2871 0.4557,-0.1145 0.9894,-0.3197 1.1835,-0.4579 0.1942,-0.1383 0.4025,-0.232 0.4657,-0.2096 0.063,0.023 0.4972,0.4075 0.9623,0.8576 1.1389,1.102 4.6628,3.7508 6.1619,4.6331 2.5219,1.4842 3.9513,2.03 7.2251,2.7589 1.0851,0.2415 1.8701,0.3214 3.8183,0.3802 1.3488,0.041 2.4523,0.095 2.4523,0.1203 0,0.026 -0.064,0.1489 -0.1436,0.2755 -0.079,0.1266 -0.1084,0.3294 -0.062,0.4501 0.08,0.208 0.1007,0.2099 0.3454,-0.012 0.1422,-0.1286 0.3374,-0.3902 0.4346,-0.5782 0.1206,-0.2332 0.2754,-0.3414 0.485,-0.3414 0.6467,-1.4718 3.2358,-3.6116 1.4793,-7.9715 z"
         style="fill:#000000" />
      <g
         transform="translate(-57.876301,0)"
         id="g4234">
        <path
           id="path4236"
           d="m 1540.5059,-1695.0396 c 0.071,0 0.2386,0.018 0.4307,0.054 0.2561,0.049 1.2369,0.1594 2.1808,0.2445 1.9918,0.1796 1.9827,0.1716 2.4795,1.4939 0.711,1.8928 0.7657,2.2567 0.5316,3.5544 -0.1156,0.6406 -0.4018,1.766 -0.6364,2.4989 -0.2346,0.7329 -0.4268,1.4217 -0.4268,1.5327 0,0.1284 -0.068,0.1774 -0.1863,0.1319 -0.1269,-0.049 -0.1862,0.01 -0.1862,0.1747 0,0.1353 -0.068,0.3549 -0.1514,0.4889 -0.12,0.1922 -0.12,0.2757 0,0.3958 0.2763,0.2762 0.1585,0.8366 -0.4113,1.9712 -0.3094,0.6161 -0.6787,1.4137 -0.8187,1.7694 -0.2674,0.6791 -0.9277,1.8067 -1.3504,2.3049 -0.1967,0.2318 -0.286,0.265 -0.4229,0.1513 -0.1398,-0.116 -0.2438,-0.041 -0.5316,0.3881 -0.3257,0.4856 -0.4466,0.5573 -1.3349,0.8109 -0.7257,0.2073 -1.4075,0.2919 -2.6657,0.3299 -1.9616,0.059 -2.4117,0.019 -3.4263,-0.2949 -2.7961,-0.8664 -3.6253,-1.9039 -3.9774,-4.9862 -0.1042,-0.9125 -0.2141,-1.7307 -0.2444,-1.816 -0.032,-0.091 0.2156,-0.2878 0.5937,-0.4773 0.3564,-0.1787 0.9731,-0.5476 1.3736,-0.8187 0.4005,-0.2712 0.7748,-0.449 0.8304,-0.392 0.056,0.057 0.2203,0.4075 0.3647,0.7761 0.4759,1.2143 1.3776,2.7962 1.8936,3.3254 0.938,0.9619 2.4391,1.3606 3.729,0.9856 1.1884,-0.3454 2.1567,-1.2725 3.1314,-2.9956 0.5937,-1.0495 1.3973,-3.1728 1.4939,-3.9462 0.09,-0.7191 -0.083,-1.9564 -0.3958,-2.821 -0.2486,-0.6871 -1.0784,-1.8651 -1.8198,-2.5882 l -0.5549,-0.5432 0.2367,-0.8227 c 0.1297,-0.4533 0.2367,-0.8442 0.2367,-0.8691 0,-0.01 0.011,-0.011 0.035,-0.012 z"
           style="fill:#999999;fill-opacity:1"
           inkscape:connector-curvature="0" />
        <path
           id="path4238"
           d="m 1545.5076,-1683.0068 0.4579,0.6015 c 0.2522,0.3306 0.7817,0.916 1.1757,1.3038 0.7074,0.6961 0.7136,0.7166 0.7761,1.5443 0.1002,1.3256 0.062,1.4355 -0.8304,2.3554 -0.2537,0.2615 -0.4571,0.4944 -0.6208,0.7023 l -0.039,-0.035 -1.2068,1.5793 c -0.9603,-0.7468 -1.8672,-1.4931 -2.1264,-1.7578 l -0.5394,-0.5549 0.3919,-0.5743 c 0.2173,-0.3157 0.7445,-1.3406 1.1719,-2.2777 0.4273,-0.9371 0.915,-1.9674 1.0826,-2.2933 z"
           style="fill:#999999;fill-opacity:1"
           inkscape:connector-curvature="0" />
        <path
           id="path4240"
           d="m 1548.9495,-1679.4369 c 0.01,0 0.018,0 0.027,0 0.068,0.038 0.4594,0.3041 0.8692,0.5898 0.2734,0.1906 0.6727,0.4459 1.1175,0.7179 l 0,0.7023 c -0.1024,0.1982 -0.1922,0.5078 -0.2173,0.7683 -0.1286,1.3389 -1.2565,2.8684 -2.2389,3.0344 -0.2875,0.049 -0.5959,0.19 -0.6829,0.3143 -0.1355,0.1935 -0.3514,0.07 -1.8665,-1.0826 l 0.9895,-1.3077 0.01,0 c 0.161,-0.144 0.3573,-0.3327 0.5976,-0.5743 1.0351,-1.0407 1.2586,-1.5016 1.2844,-2.6503 0.01,-0.3021 0.052,-0.4961 0.1125,-0.5122 z"
           style="fill:#999999;fill-opacity:1"
           inkscape:connector-curvature="0" />
        <path
           id="path4242"
           d="m 1551.6657,-1677.7024 c 0.8347,0.4919 1.7136,0.9782 2.2583,1.2417 l 0.7295,0.3493 -0.066,0.6402 c -0.087,0.8519 -0.7229,2.6647 -1.1485,3.2789 -0.2469,0.3562 -0.9398,0.9701 -1.1003,0.9192 -0.4442,-0.141 -0.6477,0.7416 -0.2755,1.0283 l 0.5376,-0.2324 c -0.9924,-0.3543 -1.6215,-0.6855 -2.8714,-1.3892 l -1.1098,-0.6247 0.4851,-0.1669 c 0.2676,-0.093 0.6726,-0.3503 0.9002,-0.5704 0.6351,-0.6141 1.3267,-2.1189 1.7229,-3.7561 0.023,-0.095 0,-0.2223 -0.062,-0.3492 z"
           style="fill:#999999;fill-opacity:1"
           inkscape:connector-curvature="0" />
        <path
           id="path4244"
           d="m 1555.5925,-1675.7894 c 0.2209,-0.023 1.4687,0.4197 1.5522,0.5627 0.055,0.094 0.1816,0.1707 0.2794,0.1707 0.259,0 0.3483,0.5287 0.2522,1.4706 -0.1362,1.3338 -0.6322,3.2478 -0.8421,3.2478 -0.1834,0 -0.4608,0.389 -0.4656,0.6519 0,0.2462 -0.3077,0.2666 -0.9972,0.066 -1.0752,-0.3127 -1.8156,-0.534 -2.4213,-0.7373 l -0.5377,0.2247 c 0.2845,-0.01 1.1231,-0.7445 1.4689,-1.2219 0.5224,-0.7211 0.7933,-1.3667 1.2534,-2.9956 0.2155,-0.7632 0.4091,-1.4068 0.4268,-1.4279 0,-0.01 0.016,-0.01 0.031,-0.012 z"
           style="fill:#999999;fill-opacity:1"
           inkscape:connector-curvature="0" />
        <path
           id="path4246"
           d="m 1538.9033,-1675.3858 c -0.015,0 -0.029,0.01 -0.046,0.019 -0.068,0.042 -0.1242,0.1335 -0.1242,0.2017 0,0.068 0.056,0.089 0.1242,0.047 0.068,-0.042 0.1242,-0.1335 0.1242,-0.2018 0,-0.051 -0.033,-0.074 -0.078,-0.066 z"
           style="fill:#999999;fill-opacity:1"
           inkscape:connector-curvature="0" />
        <path
           id="path4248"
           d="m 1538.2049,-1675.2772 c -0.022,-10e-4 -0.044,0 -0.066,0 -0.1478,0.016 -0.2841,0.1038 -0.2211,0.2056 0.039,0.062 0.1849,0.083 0.3259,0.047 0.1707,-0.045 0.2145,-0.1075 0.1319,-0.1901 -0.042,-0.042 -0.1047,-0.063 -0.1707,-0.066 z"
           style="fill:#999999;fill-opacity:1"
           inkscape:connector-curvature="0" />
        <path
           id="path4250"
           d="m 1564.1214,-1675.1802 0.4851,0 0.485,0 -0.074,0.7955 c -0.1393,1.4917 -0.7449,4.9801 -0.8808,5.0715 -0.205,0.138 -0.4463,0.1127 -0.4463,-0.046 0,-0.078 0.1177,-0.8182 0.26,-1.6453 0.1859,-1.0799 0.2447,-1.8818 0.2134,-2.8404 z"
           style="fill:#999999;fill-opacity:1"
           inkscape:connector-curvature="0" />
        <path
           id="path4252"
           d="m 1558.9568,-1675.1453 c 0.1913,0 0.4376,0.016 0.6945,0.039 0.8597,0.078 0.9352,0.1088 0.9352,0.3647 0,0.153 0.091,0.4922 0.2018,0.7567 0.2827,0.6749 0.168,2.2112 -0.2678,3.6319 -0.3158,1.0295 -0.3645,1.1144 -0.7101,1.1835 -0.5086,0.1018 -1.9961,0.032 -2.4174,-0.1125 -0.1073,-0.037 -0.062,-0.2466 0.1591,-0.7295 0.495,-1.0813 0.9235,-2.9612 0.9235,-4.0588 0,-0.5336 0.054,-1.0026 0.1203,-1.0438 0.033,-0.021 0.1696,-0.033 0.3609,-0.031 z"
           style="fill:#999999;fill-opacity:1"
           inkscape:connector-curvature="0" />
        <path
           id="path4254"
           d="m 1561.7661,-1675.056 0.6247,0 0.6286,0 0.1669,0.7567 c 0.185,0.834 0.1125,2.721 -0.163,4.2722 l -0.1513,0.8692 -1.0322,0.039 c -0.8038,0.028 -1.0145,10e-4 -0.9623,-0.1242 0.037,-0.088 0.2517,-0.7217 0.4773,-1.4047 0.3776,-1.1429 0.4113,-1.3676 0.4113,-2.8248 z"
           style="fill:#999999;fill-opacity:1"
           inkscape:connector-curvature="0" />
      </g>
    </g>
    <g
       id="g4603"
       transform="matrix(0.91568332,0,0,1,-37.285142,9.0225115)"
       inkscape:export-filename="/Users/pat/Sites/Wugbot/wugbot.org/img/wugbot.png"
       inkscape:export-xdpi="446.23001"
       inkscape:export-ydpi="446.23001">
      <path
         sodipodi:nodetypes="csssccccccsssscccccsscssccccsccccccccsccssscccsssscsssscsc"
         inkscape:connector-curvature="0"
         id="path4340"
         d="m 1773.2293,-1708.5663 c -2.8179,0.022 -5.1915,0.3308 -10.3164,1.2378 -2.5859,0.4577 -4.8188,1.0327 -8.182,2.1109 -3.5635,1.1423 -7.9246,3.6782 -11.1862,6.5034 -1.9185,1.6619 -2.4885,2.2518 -2.9951,3.0965 -0.344,0.5736 -0.4462,0.8603 -0.2899,0.9856 l 0,0.7062 c -0.011,0 -0.012,0 -0.017,0 -1.6579,0 -1.868,0.023 -2.095,0.2444 -0.2062,0.2014 -0.2196,0.2803 -0.075,0.4346 0.097,0.1037 0.2661,0.1863 0.3733,0.1863 0.1075,0 0.4473,0.1636 0.7554,0.3608 0.7277,0.4658 1.1815,0.5278 2.8722,0.3997 1.6675,-0.1263 2.0873,-0.042 3.2237,0.6403 2.0857,1.2514 3.4094,2.9555 4.0186,5.1802 0.482,1.7606 0.6578,6.5785 0.3469,9.5106 l -0.079,0.7605 c -0.1719,4.8834 -0.2874,4.8316 -1.3878,8.3307 0,0.055 -0.3101,1.1862 -0.6895,2.5144 -0.6891,2.412 -1.9037,5.9074 -3.597,10.3604 -2.3524,6.1865 -3.2697,9.0542 -3.6671,11.4857 -0.2989,1.8284 -0.2098,6.1309 0.1537,7.5744 0.4605,1.8288 2.2155,5.2854 3.6716,7.2251 1.36,1.8118 5.791,5.5238 7.9229,6.6392 2.1909,1.1464 8.0615,3.5219 10.3779,4.1985 0.6683,0.1952 1.1083,0.3834 1.0146,0.4346 9.7617,1.9661 11.1202,1.4765 22.5038,2.1535 l 3.0435,-0.074 c 1.6735,-0.041 3.929,-0.1391 5.0111,-0.2173 4.7679,-0.3441 7.826,-0.6357 9.1043,-0.8691 1.6405,-0.2997 4.531,-1.0965 5.9993,-1.6531 0.5806,-0.22 1.4208,-0.5084 1.8666,-0.6402 0.7592,-0.2245 0.8098,-0.2637 0.7905,-0.617 -0.011,-0.2074 0.027,-0.4747 0.084,-0.5937 0.1859,-0.3895 -0.3297,-0.4023 -1.1067,-0.031 l -0.7246,0.3453 -0.6061,-0.2755 c -1.1856,-0.5343 -2.5829,-1.9318 -3.4433,-3.4457 -0.5775,-1.0163 -1.0342,-2.5978 -1.4185,-4.9047 -0.4489,-2.6936 -0.4508,-4.0428 -0.011,-8.5444 0.4473,-4.5535 0.4061,-4.2913 1.1989,-7.6985 0.3736,-1.6049 0.7766,-3.365 0.896,-3.9114 0.1193,-0.5463 0.4737,-1.9991 0.7905,-3.2284 0.3169,-1.2293 0.7259,-2.8482 0.9091,-3.6009 0.1832,-0.7528 0.5583,-2.1497 0.8301,-3.1043 0.2718,-0.9546 0.6521,-2.4368 0.8476,-3.2905 0.3629,-1.5839 0.8658,-3.5965 1.2825,-5.153 1.229,-4.5925 1.4819,-10.1449 0.6895,-15.1254 -0.3569,-2.2433 -0.8158,-3.9142 -1.4845,-5.4014 -0.4177,-0.9291 -2.7847,-4.6637 -3.4784,-5.4868 -0.5215,-0.6188 -2.4395,-2.7687 -2.613,-2.9296 -0.08,-0.074 -0.5244,-0.5144 -0.9882,-0.9817 -2.2256,-2.2426 -4.4502,-3.8837 -8.0767,-5.9563 -3.4149,-1.9516 -5.5102,-2.82 -10.4043,-4.3033 -3.7592,-1.1392 -5.676,-1.4443 -9.6972,-1.556 -0.4824,-0.013 -0.9385,-0.025 -1.3791,-0.027 -0.1928,-10e-4 -0.383,0 -0.5709,0 z"
         style="fill:#000000" />
      <path
         sodipodi:nodetypes="cccscccccccscscscccsccccccccccccccccsccccccccc"
         inkscape:connector-curvature="0"
         style="fill:#999999"
         d="m 1774.5557,-1706.9521 c 2.2389,-0.01 4.3859,0.1306 6.0344,0.4229 2.0853,0.3699 7.5209,2.0019 10.1232,3.0383 2.1128,0.8415 6.4774,3.4112 8.6433,5.091 1.0217,0.7924 4.1727,3.9293 5.4897,5.4634 0.9704,1.1303 2.62,3.5018 3.4169,4.9125 1.7416,3.0833 2.4698,6.42 2.4682,11.2917 0,1.9133 -0.2962,5.5401 -0.5709,7.0001 -0.3498,1.8583 -2.1238,8.9287 -3.2149,12.805 -0.4517,1.6049 -0.9608,3.5047 -1.1287,4.2218 -0.1678,0.717 -0.392,1.648 -0.5007,2.0682 -0.6517,2.5223 -1.7729,7.2845 -2.0246,8.6104 -0.3716,1.9572 -0.9859,8.1871 -0.9882,10.015 0,1.4263 0.5514,5.5049 0.9048,6.6664 0.7884,2.5917 2.2167,4.5175 4.3127,5.8166 0.4531,0.2808 0.8257,0.5295 0.8257,0.551 0,0.1513 -4.6101,1.3114 -6.0432,1.5211 -19.3486,1.5878 -22.4224,1.3469 -39.5527,-1.4788 -2.5217,-0.7864 -7.6593,-2.9101 -9.056,-3.7445 -1.1021,-0.6586 -2.9735,-2.0888 -4.5192,-3.4535 -2.465,-2.1763 -4.0024,-4.3555 -5.6436,-8.0012 -0.3412,-0.7579 -0.9421,-3.1654 -1.1024,-4.4158 -0.1412,-1.1029 -0.057,-3.7992 0.1494,-4.7378 0.3129,-1.4263 0.5417,-2.6879 0.6324,-3.5195 0.14,-1.2836 0.9584,-4.1756 1.8842,-6.6431 0.4483,-1.1951 1.2032,-3.4302 1.6777,-4.9668 0.4743,-1.5366 1.0822,-3.4922 1.3482,-4.3459 0.6137,-1.9693 1.1408,-3.9386 1.322,-4.9357 0.078,-0.4274 0.1895,-0.8428 0.2459,-0.9236 0.057,-0.081 0.1144,-0.3187 0.1274,-0.5277 0.02,-0.326 0.3284,-2.2656 0.9135,-5.7196 0.2301,-1.3582 0.3348,-7.7072 0.1581,-9.6231 -0.2775,-3.009 -1.075,-4.8149 -2.8986,-6.5655 -1.3159,-1.2631 -3.4193,-2.3969 -4.9936,-2.6929 -0.3342,-0.063 -0.9848,-0.1169 -1.6777,-0.1475 l 0,-0.873 c 0.1679,-0.136 0.2723,-0.321 0.2723,-0.5239 0,-0.2137 0.9193,-1.0389 1.6645,-1.49 0.2601,-0.1574 1.2577,-0.8832 2.2135,-1.6142 3.2524,-2.4876 6.6322,-4.3594 9.5435,-5.285 0.773,-0.2458 2.196,-0.6974 3.1622,-1.005 1.335,-0.425 2.1448,-0.6006 3.3729,-0.7295 1.547,-0.1623 3.5625,-0.4902 3.7946,-0.617 0.06,-0.033 1.2373,-0.2328 2.6176,-0.4423 2.0243,-0.3073 4.3577,-0.4644 6.5966,-0.4734 z"
         id="path4292" />
      <path
         inkscape:connector-curvature="0"
         style="fill:#000000"
         d="m 1766.64,-1694.3475 c -0.8043,-0.021 -1.4639,0.3006 -2.1012,1.0004 -0.7427,0.8154 -0.8138,1.545 -0.2369,2.4863 0.2713,0.443 0.5574,0.6654 0.9689,0.746 1.4415,0.2825 1.7904,0.2033 2.338,-0.5262 0.6113,-0.8144 0.7737,-1.5512 0.5741,-2.6599 -0.1423,-0.7904 -0.1715,-0.8183 -0.9637,-0.9771 -0.2021,-0.04 -0.3937,-0.064 -0.5792,-0.07 z"
         id="path4294" />
      <path
         inkscape:connector-curvature="0"
         style="fill:#000000"
         d="m 1798.32,-1688.4353 c -0.026,0.01 -0.072,0.098 -0.1668,0.2794 -0.1064,0.2049 -0.1963,0.4842 -0.1977,0.6208 0,0.219 0.025,0.2117 0.202,-0.062 0.1109,-0.1707 0.1968,-0.4501 0.1933,-0.6208 0,-0.1513 0,-0.2253 -0.03,-0.2173 z"
         id="path4296" />
      <path
         inkscape:connector-curvature="0"
         style="fill:#000000"
         d="m 1798.1663,-1686.728 c -0.034,0 -0.1018,0.056 -0.1493,0.1242 -0.048,0.068 -0.02,0.1242 0.061,0.1242 0.081,0 0.1492,-0.056 0.1492,-0.1242 0,-0.068 -0.027,-0.1242 -0.061,-0.1242 z"
         id="path4298" />
    </g>
    <g
       id="g4590"
       transform="translate(258.62254,24.167712)"
       inkscape:export-filename="/Users/pat/Sites/Wugbot/wugbot.org/img/wugbot.png"
       inkscape:export-xdpi="446.23001"
       inkscape:export-ydpi="446.23001">
      <path
         id="path3231"
         d="m 1335.241,-1682.6006 c -0.2039,0.012 -0.3105,0.156 -0.3105,0.4385 0,0.3055 0.1211,0.462 0.6985,0.8964 1.1174,0.8405 1.6608,1.3516 1.6608,1.5598 0,0.1065 -0.2025,0.6008 -0.4501,1.102 -0.546,1.105 -1.4065,1.9382 -2.5805,2.499 -1.402,0.6697 -1.3137,0.6965 -1.9013,-0.5898 -0.5362,-1.1737 -0.6926,-1.3291 -1.2262,-1.1952 -0.277,0.07 -0.3108,0.1302 -0.2406,0.4191 0.045,0.1848 0.2076,0.5293 0.3609,0.7683 0.1533,0.239 0.4045,0.7419 0.5627,1.1175 0.1581,0.3756 0.8087,1.7725 1.4434,3.1043 0.6347,1.3317 1.376,3.0918 1.6492,3.9113 0.5283,1.5851 1.315,4.9605 1.4512,6.2279 l 0.082,0.7644 -0.6286,0.132 c -0.3454,0.074 -1.1788,0.415 -1.8548,0.7566 -2.958,1.4947 -3.9052,2.6809 -3.9191,4.9086 -0.01,1.5455 0.2096,2.436 0.7411,2.9995 0.4214,0.4468 0.4343,0.4485 1.2029,0.3764 0.8213,-0.077 2.3237,0.094 2.7899,0.3182 0.2224,0.1066 0.3283,0.091 0.5278,-0.089 0.3185,-0.2883 0.3164,-0.4784 -0.027,-1.1757 -0.4247,-0.8619 -0.3913,-2.1062 0.078,-2.8947 0.3971,-0.6676 0.7468,-0.9624 1.1525,-0.9624 0.5815,0 4.8994,1.4875 5.2384,1.8044 0.093,0.087 0.1987,0.407 0.2328,0.7101 0.074,0.6588 -0.1118,1.059 -0.8265,1.7966 -0.2787,0.2876 -0.5044,0.6 -0.5044,0.6945 0,0.2304 0.363,0.5336 0.7489,0.6248 0.532,0.1258 1.3045,0.8929 1.6064,1.5948 0.155,0.3604 0.3743,0.7266 0.485,0.811 0.2451,0.1865 0.4702,0.201 0.5704,0.039 0.041,-0.066 0.2722,-0.2121 0.5122,-0.326 0.4831,-0.2292 1.6664,-1.5929 2.1885,-2.5222 1.006,-1.7904 1.0928,-4.3831 0.2057,-6.1309 -0.4723,-0.9305 -1.7978,-2.3941 -2.658,-2.9374 -0.4422,-0.2793 -0.8032,-0.5218 -0.8032,-0.5393 0,-0.018 0.1476,-0.6992 0.3298,-1.5172 0.3083,-1.3841 0.3341,-1.7101 0.3492,-4.6797 0.015,-2.8689 0.038,-3.2149 0.2367,-3.434 0.1322,-0.1461 0.2027,-0.3863 0.1785,-0.5976 -0.034,-0.2962 -0.091,-0.3455 -0.3609,-0.3182 -0.2949,0.03 -0.3372,-0.03 -0.5355,-0.745 -0.5569,-2.0092 -1.8026,-3.8954 -4.2101,-6.3792 -2.1448,-2.2128 -3.6335,-3.3753 -4.245,-3.341 z"
         style="fill:#000000"
         inkscape:connector-curvature="0" />
      <path
         id="path3229"
         d="m 1338.0464,-1679.0617 c 0.142,0 2.4813,2.4957 2.6154,2.7899 0.3744,0.8218 -1.4779,2.3967 -3.9308,3.341 -0.6146,0.2365 -1.3794,0.4686 -1.6996,0.516 l -0.582,0.085 -0.5627,-1.1214 -0.5626,-1.1175 1.1524,-0.5627 c 1.4482,-0.7045 2.5669,-1.8133 3.1276,-3.1003 0.1987,-0.4563 0.3976,-0.8304 0.4423,-0.8304 z"
         style="fill:#999999;fill-opacity:1"
         inkscape:connector-curvature="0" />
      <path
         id="path3227"
         d="m 1341.3719,-1675.1931 c 0.04,7e-4 0.099,0.055 0.1901,0.1669 0.3881,0.4762 1.1806,2.2416 1.3659,3.0383 0.1721,0.7404 0.1727,0.8215 -0.023,1.0438 -0.5052,0.5729 -3.552,1.7201 -5.6148,2.1147 -0.5122,0.098 -1.0195,0.2144 -1.1253,0.2561 -0.1445,0.057 -0.2416,-0.074 -0.3919,-0.5199 -0.1101,-0.3265 -0.3432,-0.9764 -0.52,-1.4474 -0.1767,-0.471 -0.3221,-0.8761 -0.3221,-0.9002 0,-0.024 0.1615,-0.047 0.3609,-0.047 0.5485,0 2.4471,-0.7062 3.4263,-1.2766 0.838,-0.4881 2.447,-1.9409 2.5765,-2.3243 0.019,-0.058 0.038,-0.091 0.062,-0.1009 0.01,0 0.01,0 0.016,0 z"
         style="fill:#999999;fill-opacity:1"
         inkscape:connector-curvature="0" />
      <path
         id="path3225"
         d="m 1343.1839,-1669.8732 c 0.036,0 0.066,0.4678 0.066,1.04 0,0.7731 -0.048,1.0802 -0.1862,1.1951 -0.1025,0.085 -0.1863,0.2822 -0.1863,0.4385 0,0.3762 -0.5696,0.8414 -1.459,1.1912 -0.5691,0.2238 -0.9558,0.2818 -1.8936,0.2794 -0.6306,0 -1.4193,-0.049 -1.7927,-0.1009 l -1.1214,-0.4385 c -0.087,-0.3725 -0.1732,-0.7228 -0.2483,-0.9972 -0.1029,-0.3756 -0.1889,-0.6984 -0.1902,-0.7179 0,-0.019 0.1085,0.023 0.2406,0.093 0.1321,0.071 0.3975,0.1285 0.5898,0.128 0.9834,0 4.6423,-1.1775 5.6536,-1.816 0.2558,-0.1614 0.4923,-0.2949 0.5277,-0.2949 z"
         style="fill:#999999;fill-opacity:1"
         inkscape:connector-curvature="0" />
      <path
         id="path3223"
         d="m 1343.2499,-1666.0511 0,0.4152 c 0,0.4438 -0.1688,1.6004 -0.388,2.6968 -0.1222,0.6114 -0.1716,0.6801 -0.648,0.8964 -0.4363,0.1981 -0.7961,0.2331 -2.3166,0.2212 -2.5729,-0.02 -2.6041,-0.031 -2.6075,-0.877 0,-0.2641 -0.1912,-1.3065 -0.4191,-2.3903 l 1.1912,0.3105 c 1.2211,0.5333 3.3863,0.098 4.7845,-0.9662 z"
         style="fill:#999999;fill-opacity:1"
         inkscape:connector-curvature="0" />
      <path
         id="path3221"
         d="m 1342.3419,-1660.898 c 0.1226,0 0.1752,0.085 0.2639,0.2794 0.1019,0.2235 0.216,0.3057 0.3453,0.2561 0.578,-0.2218 2.4341,1.6125 3.1935,3.1546 0.3829,0.7774 0.3962,0.8582 0.3919,2.3593 0,1.4046 -0.037,1.6178 -0.3259,2.235 -0.387,0.8276 -1.2415,1.9828 -1.6259,2.1963 -0.3876,0.2153 -0.4369,0.2027 -0.5316,-0.1164 -0.1906,-0.6426 -0.9479,-1.4488 -2.0255,-2.1575 -0.024,-0.016 0.074,-0.1561 0.2173,-0.3104 0.1437,-0.1543 0.3795,-0.5243 0.5239,-0.8226 0.323,-0.6673 0.2785,-1.7219 -0.093,-2.239 -0.3405,-0.4737 -1.7834,-1.1574 -3.4263,-1.6219 -0.77,-0.2178 -1.5713,-0.4492 -1.781,-0.5161 -0.8057,-0.2571 -1.2603,-0.1627 -1.8703,0.3997 -1.1234,1.0354 -1.6608,2.1696 -1.6608,3.5039 l 0,0.7528 -1.2107,0 -1.2106,0 -0.229,-0.4657 c -0.1468,-0.3006 -0.25,-0.8742 -0.2949,-1.6258 -0.063,-1.0585 -0.042,-1.2232 0.2406,-1.8393 0.3578,-0.7816 0.9223,-1.2094 2.9413,-2.2273 1.4296,-0.7208 2.1363,-0.8992 2.1031,-0.5316 -0.091,1.0044 0.5375,0.8406 0.8808,-0.2289 0.1394,-0.4343 0.1707,-0.4557 0.5433,-0.3764 0.5668,0.1206 3.9231,0.1115 4.3731,-0.012 0.084,-0.023 0.1545,-0.037 0.2095,-0.043 0.021,0 0.041,0 0.058,0 z"
         style="fill:#999999;fill-opacity:1"
         inkscape:connector-curvature="0" />
    </g>
    <path
       id="path4635"
       d="m 1521.7533,-1596.8354 c -0.023,0.01 -0.064,0.098 -0.1474,0.2794 -0.094,0.2049 -0.1734,0.4842 -0.1747,0.6208 0,0.219 0.022,0.2117 0.1785,-0.062 0.098,-0.1707 0.1739,-0.4501 0.1708,-0.6208 0,-0.1513 0,-0.2253 -0.027,-0.2173 z"
       style="fill:#000000"
       inkscape:connector-curvature="0"
       inkscape:export-filename="/Users/pat/Sites/Wugbot/wugbot.org/img/wugbot.png"
       inkscape:export-xdpi="446.23001"
       inkscape:export-ydpi="446.23001" />
    <path
       id="path4637"
       d="m 1521.6175,-1595.1281 c -0.03,0 -0.09,0.056 -0.1319,0.1242 -0.042,0.068 -0.018,0.1242 0.054,0.1242 0.072,0 0.1319,-0.056 0.1319,-0.1242 0,-0.068 -0.024,-0.1242 -0.054,-0.1242 z"
       style="fill:#000000"
       inkscape:connector-curvature="0"
       inkscape:export-filename="/Users/pat/Sites/Wugbot/wugbot.org/img/wugbot.png"
       inkscape:export-xdpi="446.23001"
       inkscape:export-ydpi="446.23001" />
    <g
       id="g5467"
       transform="matrix(1.2716577,0,0,1.2716577,-551.96424,342.42813)"
       inkscape:export-filename="/Users/pat/Sites/Wugbot/wugbot.org/img/wugbot.png"
       inkscape:export-xdpi="446.23001"
       inkscape:export-ydpi="446.23001">
      <path
         style="fill:#000000"
         d="m 1697.2492,-1534.0068 c 0.5905,0.1952 -22.4469,-0.9125 -22.5297,-0.8613 -0.2358,0.1457 -0.2099,6.8831 0.031,8.0749 0.1036,0.5122 0.225,1.6377 0.2716,2.4989 l 0.085,1.5638 -0.8498,-0.163 c -1.1909,-0.2304 -2.2853,-0.2077 -3.5582,0.074 -1.1699,0.2587 -2.0536,0.6717 -2.7938,1.3116 -0.4367,0.3775 -0.4579,0.4371 -0.4579,1.1563 0,0.7201 0.024,0.7809 0.4967,1.2417 0.581,0.5671 2.7825,1.7545 3.9229,2.1148 0.6702,0.2117 3.1352,0.7526 4.2102,0.9235 0.6604,0.105 3.0981,0.077 4.086,-0.047 2.102,-0.2636 3.7367,-1.382 3.7367,-2.5571 l 0,-0.3415 0.4035,0.3881 c 0.7964,0.7671 3.4765,1.3731 5.4945,1.2417 1.0162,-0.066 3.1031,-0.5444 3.9735,-0.908 1.2186,-0.5092 2.9949,-1.9636 3.4224,-2.8016 0.1299,-0.2546 0.2711,-0.7613 0.3143,-1.1292 0.099,-0.8446 -0.1601,-1.388 -1.0904,-2.2893 -0.7213,-0.699 -1.401,-0.9785 -1.9129,-0.7839 -0.2719,0.1034 -0.3011,0.082 -0.2988,-0.225 0,-0.1861 0.088,-1.0361 0.1901,-1.8897 0.1017,-0.8537 0.1878,-2.3953 0.194,-3.4263 l 0.012,-1.8742 2.689,-0.074 c 0,-0.2003 -0.088,-0.5443 -0.042,-1.2182 z m -17.2149,0.5578 c 0.014,0.035 0.025,0.073 0.035,0.1125 2.1135,-5e-4 4.7697,0.5678 8.0051,0.5991 l 0.4773,0 0.01,0 c -0.2263,2.2154 -0.2321,2.9241 -0.027,3.2168 0.1655,0.2363 0.2018,0.6471 0.2018,2.3437 l 0,2.0604 -1.1408,0.163 c -1.716,0.2428 -3.2434,0.8775 -4.2567,1.7694 -0.4823,0.4245 -0.5626,0.563 -0.5626,0.9623 0,0.2572 0.058,0.6417 0.1319,0.8537 0.074,0.212 0.1158,0.4753 0.093,0.5859 -0.032,0.1583 -0.119,0.1195 -0.4074,-0.1824 -0.2016,-0.2108 -0.6324,-0.5628 -0.9585,-0.7838 -0.326,-0.221 -0.5919,-0.5013 -0.5936,-0.6208 0,-0.2862 -0.3181,-0.2756 -0.6131,0.019 -0.2311,0.2311 -0.2368,0.2285 -0.3104,-0.1397 -0.041,-0.2063 -0.074,-1.1135 -0.074,-2.0139 0,-1.2472 0.043,-1.6944 0.1824,-1.8781 0.2444,-0.323 0.2348,-0.4268 -0.039,-0.4268 -0.2107,0 -0.2343,-0.1716 -0.3066,-2.1419 -0.061,-1.6725 -0.036,-2.3869 0.1165,-3.2595 0.1278,-0.7317 0.1343,-0.8719 0.073,-1.1268 0.039,-0.3219 -0.3601,-0.9377 -0.035,-0.1125 z"
         id="path4629"
         inkscape:connector-curvature="0"
         sodipodi:nodetypes="csscccscsscccsccsssssccccccccccccsccsscccscccscssscccc" />
      <g
         transform="translate(97.362002,82.577402)"
         id="g4661">
        <path
           style="fill:#999999;fill-opacity:1"
           d="m 1595.9865,-1618.8537 c 0.056,0.01 0.074,0.2211 0.1126,0.7955 0.034,0.5101 0.041,1.0531 0.016,1.2068 -0.044,0.2698 -0.092,0.2794 -1.3969,0.2794 -1.3401,0 -1.3504,0 -1.3504,-0.2949 0,-0.3479 0.1736,-0.5083 0.683,-0.6287 0.5171,-0.1221 1.5275,-0.7887 1.7771,-1.1718 0.077,-0.1184 0.1253,-0.1895 0.1591,-0.1863 z"
           id="path4663"
           inkscape:connector-curvature="0" />
        <path
           style="fill:#999999;fill-opacity:1"
           d="m 1595.9438,-1615.4157 c 0.1388,-0.01 0.1553,0.1867 0.1553,1.1292 0,0.6501 -0.066,1.3194 -0.1436,1.49 -0.1487,0.3263 -0.2343,0.3587 -1.6569,0.5743 -0.4781,0.072 -1.0213,0.1529 -1.2068,0.1824 l -0.3376,0.054 -0.035,-1.2689 c -0.019,-0.6978 0.012,-1.4365 0.07,-1.6413 l 0.1048,-0.3726 1.3814,-0.031 c 0.7598,-0.017 1.481,-0.062 1.6026,-0.1009 0.025,-0.01 0.046,-0.014 0.066,-0.015 z"
           id="path4665"
           inkscape:connector-curvature="0" />
        <path
           style="fill:#999999;fill-opacity:1"
           d="m 1578.2458,-1613.4678 c 0.049,10e-5 0.2724,0.1613 0.4966,0.357 0.8978,0.7831 1.9872,1.1379 2.5804,0.842 l 0.3726,-0.1862 0,0.4734 c 0,0.4449 -0.034,0.4847 -0.5937,0.7256 -0.3266,0.1405 -0.9831,0.3531 -1.459,0.4695 -0.4759,0.1163 -0.9207,0.2593 -0.9856,0.3182 -0.1939,0.1759 -0.3063,0.121 -0.3725,-0.1746 -0.1026,-0.4578 -0.135,-2.8249 -0.039,-2.8249 z"
           id="path4667"
           inkscape:connector-curvature="0" />
        <path
           style="fill:#999999;fill-opacity:1"
           d="m 1595.8468,-1611.5858 c 0.1144,-2e-4 0.1259,0.1015 0.1242,0.4307 0,0.7213 -0.2321,2.1831 -0.3686,2.3476 -0.066,0.08 -0.5005,0.2067 -0.9623,0.2832 -0.4619,0.077 -1.0757,0.1743 -1.3659,0.2173 l -0.5277,0.078 0,-1.4784 0,-1.4784 1.3348,-0.1435 c 0.7341,-0.08 1.4605,-0.1818 1.6142,-0.2251 0.064,-0.018 0.1132,-0.031 0.1513,-0.031 z"
           id="path4669"
           inkscape:connector-curvature="0" />
        <path
           style="fill:#999999;fill-opacity:1"
           d="m 1581.6604,-1610.8641 0.089,1.3154 c 0.049,0.7252 0.049,1.356 0,1.4008 -0.045,0.045 -0.4309,0.082 -0.8614,0.082 -0.685,0 -0.8155,-0.039 -1.036,-0.3104 l -0.2522,-0.3105 -0.3532,0.2639 c -0.4775,0.3554 -0.4662,0.7926 0.023,1.036 0.4302,0.214 1.8054,0.225 2.3282,0.019 l 0.3415,-0.1319 0,0.5859 c 0,0.9502 -0.071,1.0611 -0.7916,1.2999 -0.7079,0.2346 -1.1693,0.2595 -1.7383,0.089 -0.1991,-0.06 -0.4006,-0.086 -0.4463,-0.058 -0.046,0.028 -0.1532,-0.769 -0.2367,-1.7733 -0.083,-1.0043 -0.1807,-1.9711 -0.2173,-2.1497 -0.065,-0.3192 -0.05,-0.3282 0.9003,-0.4695 0.9566,-0.1423 1.2953,-0.261 1.9246,-0.6752 z"
           id="path4671"
           inkscape:connector-curvature="0" />
        <path
           style="fill:#999999;fill-opacity:1"
           d="m 1595.614,-1607.95 -0.085,0.9972 c -0.1282,1.4991 -0.1336,1.5047 -1.1292,1.5987 -1.4547,0.1374 -1.4881,0.13 -1.5754,-0.3065 -0.1161,-0.5806 -0.094,-1.2016 0.046,-1.2883 0.068,-0.042 0.1242,-0.1716 0.1242,-0.2871 0,-0.1679 0.265,-0.26 1.3116,-0.4618 z"
           id="path4673"
           inkscape:connector-curvature="0" />
        <path
           style="fill:#999999;fill-opacity:1"
           d="m 1596.8014,-1607.2399 c 0.2163,-0.038 1.0793,0.5505 1.4435,1.0011 0.6165,0.7629 0.7101,0.9933 0.7101,1.7462 0,0.5432 -0.069,0.7669 -0.357,1.164 -0.8646,1.1936 -2.2217,1.9903 -4.0821,2.3981 -1.1876,0.2603 -2.0839,0.2916 -3.5621,0.1203 -0.9135,-0.1059 -2.401,-0.5338 -2.7589,-0.7955 -0.1947,-0.1424 -0.1777,-0.1786 0.1823,-0.3647 0.5267,-0.2724 0.5362,-0.5931 0.016,-0.489 -0.2907,0.058 -0.4345,0.014 -0.6248,-0.1901 -0.3009,-0.3229 -0.9817,-1.7327 -0.9817,-2.0333 0,-0.2858 0.8625,-0.8995 1.5909,-1.133 0.3195,-0.1025 1.0291,-0.2471 1.5754,-0.3221 0.5464,-0.075 1.1471,-0.1689 1.3349,-0.2057 0.3314,-0.065 0.3414,-0.048 0.3414,0.489 0,0.7128 0.2902,1.5338 0.648,1.8276 0.2793,0.2292 0.2865,0.2246 0.6558,-0.1863 0.3643,-0.4051 0.3974,-0.4137 1.5832,-0.4734 0.667,-0.034 1.2833,-0.1183 1.3697,-0.1901 0.086,-0.072 0.3133,-0.1888 0.5006,-0.26 0.3918,-0.1489 0.5695,-0.4867 0.3337,-0.6325 -0.1157,-0.072 -0.1407,-0.2817 -0.085,-0.7489 0.042,-0.3574 0.1023,-0.6727 0.132,-0.7023 0.01,-0.01 0.021,-0.017 0.035,-0.019 z"
           id="path4675"
           inkscape:connector-curvature="0" />
        <path
           style="fill:#999999;fill-opacity:1"
           d="m 1581.8389,-1605.1872 c 0.017,-4e-4 0.026,0 0.031,0.01 0.04,0.04 0.074,0.4866 0.074,0.9895 0,1.0415 0.1159,1.1753 0.7528,0.8576 0.3704,-0.1848 0.4166,-0.1828 0.7838,0.074 0.2138,0.1493 0.7082,0.58 1.102,0.9545 1.2772,1.2148 1.2098,2.0741 -0.2057,2.6037 -0.5264,0.197 -1.0726,0.2633 -2.6347,0.3105 -2.2137,0.067 -2.0279,0.086 -4.571,-0.489 -1.5537,-0.3513 -2.1331,-0.5515 -3.4224,-1.1796 -1.7507,-0.8529 -2.277,-1.2114 -2.5455,-1.7306 -0.268,-0.5182 -0.2317,-0.7824 0.1552,-1.1253 0.5047,-0.4473 0.817,-0.5967 1.6763,-0.7993 0.9942,-0.2344 1.9148,-0.2323 3.2129,0 1.6487,0.3 1.5987,0.28 1.5987,0.6248 0,0.378 0.2161,0.479 0.6596,0.3104 0.2572,-0.098 0.3338,-0.2063 0.3338,-0.4928 0,-0.3685 0,-0.3728 0.5936,-0.3027 0.4855,0.058 0.7556,0 1.4784,-0.3065 0.426,-0.1813 0.8115,-0.3082 0.9274,-0.3104 z"
           id="path4677"
           inkscape:connector-curvature="0" />
        <path
           style="fill:#000000;fill-opacity:1;stroke:#000000;stroke-opacity:1"
           d="m 1595.9865,-1618.8537 c 0.056,0.01 0.074,0.2211 0.1126,0.7955 0.034,0.5101 0.041,1.8004 0.016,1.9541 -0.044,0.2698 -0.092,0.2794 -1.3969,0.2794 -1.3401,0 -1.3504,-0.7495 -1.3504,-1.0422 0,-0.3479 0.1736,-0.5083 0.683,-0.6287 0.5171,-0.1221 1.5275,-0.7887 1.7771,-1.1718 0.077,-0.1184 0.1253,-0.1895 0.1591,-0.1863 z"
           id="path4697"
           inkscape:connector-curvature="0"
           sodipodi:nodetypes="cssssssc" />
        <path
           sodipodi:nodetypes="cssssssc"
           inkscape:connector-curvature="0"
           id="path4679"
           d="m 1595.9865,-1618.8537 c 0.056,0.01 0.074,0.2211 0.1126,0.7955 0.034,0.5101 0.041,1.8004 0.016,1.9541 -0.044,0.2698 -0.092,0.2794 -1.3969,0.2794 -1.3401,0 -1.3504,-0.7495 -1.3504,-1.0422 0,-0.3479 0.1736,-0.5083 0.683,-0.6287 0.5171,-0.1221 1.5275,-0.7887 1.7771,-1.1718 0.077,-0.1184 0.1253,-0.1895 0.1591,-0.1863 z"
           style="fill:#999999;fill-opacity:1" />
        <path
           sodipodi:nodetypes="cscccccccccc"
           inkscape:connector-curvature="0"
           id="path4681"
           d="m 1595.9438,-1615.4157 c 0.1388,-0.01 0.1553,0.1867 0.1553,1.1292 0,0.6501 -0.066,1.3194 -0.1436,1.49 -0.1487,0.3263 -0.2343,0.3587 -1.6569,0.5743 -0.4781,0.072 -1.0213,0.1529 -1.2068,0.1824 l -0.3376,0.054 -0.035,-1.2689 c -0.019,-0.6978 0.012,-1.4365 0.07,-1.6413 l 0.1048,-0.775 1.3814,0.8313 c 0.7598,-0.017 1.481,-0.5222 1.6026,-0.5608 0.025,-0.01 0.046,-0.014 0.066,-0.015 z"
           style="fill:#999999;fill-opacity:1" />
        <path
           id="path4683"
           d="m 1578.2458,-1613.4678 c 0.049,10e-5 0.2724,0.1613 0.4966,0.357 0.8978,0.7831 1.9872,1.1379 2.5804,0.842 l 0.3726,-0.1862 0,0.4734 c 0,0.4449 -0.034,0.4847 -0.5937,0.7256 -0.3266,0.1405 -0.9831,0.3531 -1.459,0.4695 -0.4759,0.1163 -0.9207,0.2593 -0.9856,0.3182 -0.1939,0.1759 -0.3063,0.121 -0.3725,-0.1746 -0.1026,-0.4578 -0.135,-2.8249 -0.039,-2.8249 z"
           style="fill:#999999;fill-opacity:1"
           inkscape:connector-curvature="0" />
        <path
           id="path4685"
           d="m 1595.8468,-1611.5858 c 0.1144,-2e-4 0.1259,0.1015 0.1242,0.4307 0,0.7213 -0.2321,2.1831 -0.3686,2.3476 -0.066,0.08 -0.5005,0.2067 -0.9623,0.2832 -0.4619,0.077 -1.0757,0.1743 -1.3659,0.2173 l -0.5277,0.078 0,-1.4784 0,-1.4784 1.3348,-0.1435 c 0.7341,-0.08 1.4605,-0.1818 1.6142,-0.2251 0.064,-0.018 0.1132,-0.031 0.1513,-0.031 z"
           style="fill:#999999;fill-opacity:1"
           inkscape:connector-curvature="0" />
        <path
           id="path4687"
           d="m 1581.6604,-1610.8641 0.089,1.3154 c 0.049,0.7252 0.049,1.356 0,1.4008 -0.045,0.045 -0.4309,0.082 -0.8614,0.082 -0.685,0 -0.8155,-0.039 -1.036,-0.3104 l -0.2522,-0.3105 -0.3532,0.2639 c -0.4775,0.3554 -0.4662,0.7926 0.023,1.036 0.4302,0.214 1.8054,0.225 2.3282,0.019 l 0.3415,-0.1319 0,0.5859 c 0,0.9502 -0.071,1.0611 -0.7916,1.2999 -0.7079,0.2346 -1.1693,0.2595 -1.7383,0.089 -0.1991,-0.06 -0.4006,-0.086 -0.4463,-0.058 -0.046,0.028 -0.1532,-0.769 -0.2367,-1.7733 -0.083,-1.0043 -0.1807,-1.9711 -0.2173,-2.1497 -0.065,-0.3192 -0.05,-0.3282 0.9003,-0.4695 0.9566,-0.1423 1.2953,-0.261 1.9246,-0.6752 z"
           style="fill:#999999;fill-opacity:1"
           inkscape:connector-curvature="0" />
        <path
           id="path4689"
           d="m 1595.614,-1607.95 -0.085,0.9972 c -0.1282,1.4991 -0.1336,1.5047 -1.1292,1.5987 -1.4547,0.1374 -1.4881,0.13 -1.5754,-0.3065 -0.1161,-0.5806 -0.094,-1.2016 0.046,-1.2883 0.068,-0.042 0.1242,-0.1716 0.1242,-0.2871 0,-0.1679 0.265,-0.26 1.3116,-0.4618 z"
           style="fill:#999999;fill-opacity:1"
           inkscape:connector-curvature="0" />
        <path
           id="path4691"
           d="m 1596.8014,-1607.2399 c 0.2163,-0.038 1.0793,0.5505 1.4435,1.0011 0.6165,0.7629 0.7101,0.9933 0.7101,1.7462 0,0.5432 -0.069,0.7669 -0.357,1.164 -0.8646,1.1936 -2.2217,1.9903 -4.0821,2.3981 -1.1876,0.2603 -2.0839,0.2916 -3.5621,0.1203 -0.9135,-0.1059 -2.401,-0.5338 -2.7589,-0.7955 -0.1947,-0.1424 -0.1777,-0.1786 0.1823,-0.3647 0.5267,-0.2724 0.5362,-0.5931 0.016,-0.489 -0.2907,0.058 -0.4345,0.014 -0.6248,-0.1901 -0.3009,-0.3229 -0.9817,-1.7327 -0.9817,-2.0333 0,-0.2858 0.8625,-0.8995 1.5909,-1.133 0.3195,-0.1025 1.0291,-0.2471 1.5754,-0.3221 0.5464,-0.075 1.1471,-0.1689 1.3349,-0.2057 0.3314,-0.065 0.3414,-0.048 0.3414,0.489 0,0.7128 0.2902,1.5338 0.648,1.8276 0.2793,0.2292 0.2865,0.2246 0.6558,-0.1863 0.3643,-0.4051 0.3974,-0.4137 1.5832,-0.4734 0.667,-0.034 1.2833,-0.1183 1.3697,-0.1901 0.086,-0.072 0.3133,-0.1888 0.5006,-0.26 0.3918,-0.1489 0.5695,-0.4867 0.3337,-0.6325 -0.1157,-0.072 -0.1407,-0.2817 -0.085,-0.7489 0.042,-0.3574 0.1023,-0.6727 0.132,-0.7023 0.01,-0.01 0.021,-0.017 0.035,-0.019 z"
           style="fill:#999999;fill-opacity:1"
           inkscape:connector-curvature="0" />
        <path
           id="path4693"
           d="m 1581.8389,-1605.1872 c 0.017,-4e-4 0.026,0 0.031,0.01 0.04,0.04 0.074,0.4866 0.074,0.9895 0,1.0415 0.1159,1.1753 0.7528,0.8576 0.3704,-0.1848 0.4166,-0.1828 0.7838,0.074 0.2138,0.1493 0.7082,0.58 1.102,0.9545 1.2772,1.2148 1.2098,2.0741 -0.2057,2.6037 -0.5264,0.197 -1.0726,0.2633 -2.6347,0.3105 -2.2137,0.067 -2.0279,0.086 -4.571,-0.489 -1.5537,-0.3513 -2.1331,-0.5515 -3.4224,-1.1796 -1.7507,-0.8529 -2.277,-1.2114 -2.5455,-1.7306 -0.268,-0.5182 -0.2317,-0.7824 0.1552,-1.1253 0.5047,-0.4473 0.817,-0.5967 1.6763,-0.7993 0.9942,-0.2344 1.9148,-0.2323 3.2129,0 1.6487,0.3 1.5987,0.28 1.5987,0.6248 0,0.378 0.2161,0.479 0.6596,0.3104 0.2572,-0.098 0.3338,-0.2063 0.3338,-0.4928 0,-0.3685 0,-0.3728 0.5936,-0.3027 0.4855,0.058 0.7556,0 1.4784,-0.3065 0.426,-0.1813 0.8115,-0.3082 0.9274,-0.3104 z"
           style="fill:#999999;fill-opacity:1"
           inkscape:connector-curvature="0" />
        <path
           sodipodi:nodetypes="cccscccc"
           inkscape:connector-curvature="0"
           style="fill:#999999;fill-opacity:1"
           d="m 1578.2458,-1616.8974 c 0.1461,0.373 0.8492,0.6638 1.9273,0.8541 l 1.5223,0.1587 0,0.4734 c 0,0.445 0.1289,1.3587 -0.4311,1.5996 -0.3266,0.1405 -1.0848,0.2109 -1.7842,-0.2825 -0.2057,-0.089 -1.1767,-0.9966 -1.1955,-1.0759 -0.1026,-0.4578 -0.135,-1.7274 -0.039,-1.7274 z"
           id="path4695" />
      </g>
    </g>
  </g>
</svg>
